# xmcd CD database file
#
# Track frame offsets:
#	150
#	22953
#	43448
#	65635
#	85600
#	105688
#	127120
#	147023
#	171953
#	192565
#
# Disc length: 2817 seconds
#
# Revision: 0
# Processed by: cddbd v1.5.1PL2 Copyright (c) Steve Scherf et al.
# Submitted via: CDex 1.51
#
DISCID=900aff0a
DTITLE=Boney James - Body Language
DYEAR=1900
DGENRE=Fusion
TTITLE0=Are You Ready?
TTITLE1=Into the Blue
TTITLE2=Body Language
TTITLE3=I'll Always Love You
TTITLE4=Boneyizm
TTITLE5=Lovefest
TTITLE6=Bedtime Story
TTITLE7=I Get Lonely
TTITLE8=All Night Long
TTITLE9=All Night Long - instrumental
EXTD=
EXTT0=
EXTT1=
EXTT2=
EXTT3=
EXTT4=
EXTT5=
EXTT6=
EXTT7=
EXTT8=
EXTT9=
PLAYORDER=
